<?xml version="1.0" encoding="utf-8" standalone="no"?>
<!DOCTYPE svg PUBLIC "-//W3C//DTD SVG 1.1//EN"
  "http://www.w3.org/Graphics/SVG/1.1/DTD/svg11.dtd">
<svg xmlns:xlink="http://www.w3.org/1999/xlink" width="460.8pt" height="345.6pt" viewBox="0 0 460.8 345.6" xmlns="http://www.w3.org/2000/svg" version="1.1">
 <metadata>
  <rdf:RDF xmlns:dc="http://purl.org/dc/elements/1.1/" xmlns:cc="http://creativecommons.org/ns#" xmlns:rdf="http://www.w3.org/1999/02/22-rdf-syntax-ns#">
   <cc:Work>
    <dc:type rdf:resource="http://purl.org/dc/dcmitype/StillImage"/>
    <dc:date>2023-07-04T13:51:57.355361</dc:date>
    <dc:format>image/svg+xml</dc:format>
    <dc:creator>
     <cc:Agent>
      <dc:title>Matplotlib v3.7.1, https://matplotlib.org/</dc:title>
     </cc:Agent>
    </dc:creator>
   </cc:Work>
  </rdf:RDF>
 </metadata>
 <defs>
  <style type="text/css">*{stroke-linejoin: round; stroke-linecap: butt}</style>
 </defs>
 <g id="figure_1">
  <g id="patch_1">
   <path d="M 0 345.6 
L 460.8 345.6 
L 460.8 0 
L 0 0 
z
" style="fill: #ffffff"/>
  </g>
  <g id="patch_2">
   <path d="M 103.104 307.584 
L 369.216 307.584 
L 369.216 41.472 
L 103.104 41.472 
z
" style="fill: #ffffff"/>
  </g>
  <g id="pane3d_1">
   <g id="patch_3">
    <path d="M 183.786339 204.293567 
L 339.448841 215.72971 
L 341.600996 95.889986 
L 182.612103 87.589325 
" style="fill: #f2f2f2; opacity: 0.5; stroke: #f2f2f2; stroke-linejoin: miter"/>
   </g>
  </g>
  <g id="pane3d_2">
   <g id="patch_4">
    <path d="M 183.786339 204.293567 
L 131.687165 250.559841 
L 129.153572 121.231657 
L 182.612103 87.589325 
" style="fill: #e6e6e6; opacity: 0.5; stroke: #e6e6e6; stroke-linejoin: miter"/>
   </g>
  </g>
  <g id="pane3d_3">
   <g id="patch_5">
    <path d="M 183.786339 204.293567 
L 131.687165 250.559841 
L 304.129451 264.818199 
L 339.448841 215.72971 
" style="fill: #ececec; opacity: 0.5; stroke: #ececec; stroke-linejoin: miter"/>
   </g>
  </g>
  <g id="axis3d_1">
   <g id="line2d_1">
    <path d="M 339.448841 215.72971 
L 304.129451 264.818199 
" style="fill: none; stroke: #000000; stroke-width: 0.8; stroke-linecap: square"/>
   </g>
   <g id="Line3DCollection_1">
    <path d="M 337.425582 218.541726 
L 180.792667 206.952074 
L 179.547293 89.51806 
" style="fill: none; stroke: #b0b0b0; stroke-width: 0.8"/>
    <path d="M 333.381006 224.163062 
L 174.811552 212.263558 
L 173.42151 93.373116 
" style="fill: none; stroke: #b0b0b0; stroke-width: 0.8"/>
    <path d="M 329.22599 229.937891 
L 168.671775 217.715941 
L 167.129702 97.332654 
" style="fill: none; stroke: #b0b0b0; stroke-width: 0.8"/>
    <path d="M 324.955949 235.872588 
L 162.366936 223.314904 
L 160.665026 101.400981 
" style="fill: none; stroke: #b0b0b0; stroke-width: 0.8"/>
    <path d="M 320.566038 241.973885 
L 155.890291 229.06644 
L 154.020259 105.582641 
" style="fill: none; stroke: #b0b0b0; stroke-width: 0.8"/>
    <path d="M 316.051139 248.248896 
L 149.234718 234.97687 
L 147.18777 109.88244 
" style="fill: none; stroke: #b0b0b0; stroke-width: 0.8"/>
    <path d="M 311.405837 254.705148 
L 142.3927 241.052872 
L 140.159488 114.305453 
" style="fill: none; stroke: #b0b0b0; stroke-width: 0.8"/>
    <path d="M 306.624398 261.350608 
L 135.35629 247.301502 
L 132.926876 118.857054 
" style="fill: none; stroke: #b0b0b0; stroke-width: 0.8"/>
   </g>
   <g id="xtick_1">
    <g id="line2d_2">
     <path d="M 336.137023 218.446383 
L 340.004468 218.732544 
" style="fill: none; stroke: #000000; stroke-width: 0.8; stroke-linecap: square"/>
    </g>
    <g id="text_1">
     <!-- 1 -->
     <g transform="translate(347.447345 236.930128) scale(0.1 -0.1)">
      <defs>
       <path id="DejaVuSans-31" d="M 794 531 
L 1825 531 
L 1825 4091 
L 703 3866 
L 703 4441 
L 1819 4666 
L 2450 4666 
L 2450 531 
L 3481 531 
L 3481 0 
L 794 0 
L 794 531 
z
" transform="scale(0.015625)"/>
      </defs>
      <use xlink:href="#DejaVuSans-31"/>
     </g>
    </g>
   </g>
   <g id="xtick_2">
    <g id="line2d_3">
     <path d="M 332.076031 224.065133 
L 335.992768 224.359056 
" style="fill: none; stroke: #000000; stroke-width: 0.8; stroke-linecap: square"/>
    </g>
    <g id="text_2">
     <!-- 2 -->
     <g transform="translate(343.578228 242.700329) scale(0.1 -0.1)">
      <defs>
       <path id="DejaVuSans-32" d="M 1228 531 
L 3431 531 
L 3431 0 
L 469 0 
L 469 531 
Q 828 903 1448 1529 
Q 2069 2156 2228 2338 
Q 2531 2678 2651 2914 
Q 2772 3150 2772 3378 
Q 2772 3750 2511 3984 
Q 2250 4219 1831 4219 
Q 1534 4219 1204 4116 
Q 875 4013 500 3803 
L 500 4441 
Q 881 4594 1212 4672 
Q 1544 4750 1819 4750 
Q 2544 4750 2975 4387 
Q 3406 4025 3406 3419 
Q 3406 3131 3298 2873 
Q 3191 2616 2906 2266 
Q 2828 2175 2409 1742 
Q 1991 1309 1228 531 
z
" transform="scale(0.015625)"/>
      </defs>
      <use xlink:href="#DejaVuSans-32"/>
     </g>
    </g>
   </g>
   <g id="xtick_3">
    <g id="line2d_4">
     <path d="M 327.904178 229.83727 
L 331.871476 230.139275 
" style="fill: none; stroke: #000000; stroke-width: 0.8; stroke-linecap: square"/>
    </g>
    <g id="text_3">
     <!-- 3 -->
     <g transform="translate(339.603397 248.628186) scale(0.1 -0.1)">
      <defs>
       <path id="DejaVuSans-33" d="M 2597 2516 
Q 3050 2419 3304 2112 
Q 3559 1806 3559 1356 
Q 3559 666 3084 287 
Q 2609 -91 1734 -91 
Q 1441 -91 1130 -33 
Q 819 25 488 141 
L 488 750 
Q 750 597 1062 519 
Q 1375 441 1716 441 
Q 2309 441 2620 675 
Q 2931 909 2931 1356 
Q 2931 1769 2642 2001 
Q 2353 2234 1838 2234 
L 1294 2234 
L 1294 2753 
L 1863 2753 
Q 2328 2753 2575 2939 
Q 2822 3125 2822 3475 
Q 2822 3834 2567 4026 
Q 2313 4219 1838 4219 
Q 1578 4219 1281 4162 
Q 984 4106 628 3988 
L 628 4550 
Q 988 4650 1302 4700 
Q 1616 4750 1894 4750 
Q 2613 4750 3031 4423 
Q 3450 4097 3450 3541 
Q 3450 3153 3228 2886 
Q 3006 2619 2597 2516 
z
" transform="scale(0.015625)"/>
      </defs>
      <use xlink:href="#DejaVuSans-33"/>
     </g>
    </g>
   </g>
   <g id="xtick_4">
    <g id="line2d_5">
     <path d="M 323.616861 235.769163 
L 327.636037 236.079587 
" style="fill: none; stroke: #000000; stroke-width: 0.8; stroke-linecap: square"/>
    </g>
    <g id="text_4">
     <!-- 4 -->
     <g transform="translate(335.518459 254.720251) scale(0.1 -0.1)">
      <defs>
       <path id="DejaVuSans-34" d="M 2419 4116 
L 825 1625 
L 2419 1625 
L 2419 4116 
z
M 2253 4666 
L 3047 4666 
L 3047 1625 
L 3713 1625 
L 3713 1100 
L 3047 1100 
L 3047 0 
L 2419 0 
L 2419 1100 
L 313 1100 
L 313 1709 
L 2253 4666 
z
" transform="scale(0.015625)"/>
      </defs>
      <use xlink:href="#DejaVuSans-34"/>
     </g>
    </g>
   </g>
   <g id="xtick_5">
    <g id="line2d_6">
     <path d="M 319.209219 241.867536 
L 323.281642 242.186737 
" style="fill: none; stroke: #000000; stroke-width: 0.8; stroke-linecap: square"/>
    </g>
    <g id="text_5">
     <!-- 5 -->
     <g transform="translate(331.318775 260.983442) scale(0.1 -0.1)">
      <defs>
       <path id="DejaVuSans-35" d="M 691 4666 
L 3169 4666 
L 3169 4134 
L 1269 4134 
L 1269 2991 
Q 1406 3038 1543 3061 
Q 1681 3084 1819 3084 
Q 2600 3084 3056 2656 
Q 3513 2228 3513 1497 
Q 3513 744 3044 326 
Q 2575 -91 1722 -91 
Q 1428 -91 1123 -41 
Q 819 9 494 109 
L 494 744 
Q 775 591 1075 516 
Q 1375 441 1709 441 
Q 2250 441 2565 725 
Q 2881 1009 2881 1497 
Q 2881 1984 2565 2268 
Q 2250 2553 1709 2553 
Q 1456 2553 1204 2497 
Q 953 2441 691 2322 
L 691 4666 
z
" transform="scale(0.015625)"/>
      </defs>
      <use xlink:href="#DejaVuSans-35"/>
     </g>
    </g>
   </g>
   <g id="xtick_6">
    <g id="line2d_7">
     <path d="M 314.676114 248.139498 
L 318.80321 248.467853 
" style="fill: none; stroke: #000000; stroke-width: 0.8; stroke-linecap: square"/>
    </g>
    <g id="text_6">
     <!-- 6 -->
     <g transform="translate(326.999441 267.425073) scale(0.1 -0.1)">
      <defs>
       <path id="DejaVuSans-36" d="M 2113 2584 
Q 1688 2584 1439 2293 
Q 1191 2003 1191 1497 
Q 1191 994 1439 701 
Q 1688 409 2113 409 
Q 2538 409 2786 701 
Q 3034 994 3034 1497 
Q 3034 2003 2786 2293 
Q 2538 2584 2113 2584 
z
M 3366 4563 
L 3366 3988 
Q 3128 4100 2886 4159 
Q 2644 4219 2406 4219 
Q 1781 4219 1451 3797 
Q 1122 3375 1075 2522 
Q 1259 2794 1537 2939 
Q 1816 3084 2150 3084 
Q 2853 3084 3261 2657 
Q 3669 2231 3669 1497 
Q 3669 778 3244 343 
Q 2819 -91 2113 -91 
Q 1303 -91 875 529 
Q 447 1150 447 2328 
Q 447 3434 972 4092 
Q 1497 4750 2381 4750 
Q 2619 4750 2861 4703 
Q 3103 4656 3366 4563 
z
" transform="scale(0.015625)"/>
      </defs>
      <use xlink:href="#DejaVuSans-36"/>
     </g>
    </g>
   </g>
   <g id="xtick_7">
    <g id="line2d_8">
     <path d="M 310.012112 254.592568 
L 314.195363 254.930476 
" style="fill: none; stroke: #000000; stroke-width: 0.8; stroke-linecap: square"/>
    </g>
    <g id="text_7">
     <!-- 7 -->
     <g transform="translate(322.55527 274.052879) scale(0.1 -0.1)">
      <defs>
       <path id="DejaVuSans-37" d="M 525 4666 
L 3525 4666 
L 3525 4397 
L 1831 0 
L 1172 0 
L 2766 4134 
L 525 4134 
L 525 4666 
z
" transform="scale(0.015625)"/>
      </defs>
      <use xlink:href="#DejaVuSans-37"/>
     </g>
    </g>
   </g>
   <g id="xtick_8">
    <g id="line2d_9">
     <path d="M 305.211461 261.234705 
L 309.45241 261.58259 
" style="fill: none; stroke: #000000; stroke-width: 0.8; stroke-linecap: square"/>
    </g>
    <g id="text_8">
     <!-- 8 -->
     <g transform="translate(317.98077 280.87505) scale(0.1 -0.1)">
      <defs>
       <path id="DejaVuSans-38" d="M 2034 2216 
Q 1584 2216 1326 1975 
Q 1069 1734 1069 1313 
Q 1069 891 1326 650 
Q 1584 409 2034 409 
Q 2484 409 2743 651 
Q 3003 894 3003 1313 
Q 3003 1734 2745 1975 
Q 2488 2216 2034 2216 
z
M 1403 2484 
Q 997 2584 770 2862 
Q 544 3141 544 3541 
Q 544 4100 942 4425 
Q 1341 4750 2034 4750 
Q 2731 4750 3128 4425 
Q 3525 4100 3525 3541 
Q 3525 3141 3298 2862 
Q 3072 2584 2669 2484 
Q 3125 2378 3379 2068 
Q 3634 1759 3634 1313 
Q 3634 634 3220 271 
Q 2806 -91 2034 -91 
Q 1263 -91 848 271 
Q 434 634 434 1313 
Q 434 1759 690 2068 
Q 947 2378 1403 2484 
z
M 1172 3481 
Q 1172 3119 1398 2916 
Q 1625 2713 2034 2713 
Q 2441 2713 2670 2916 
Q 2900 3119 2900 3481 
Q 2900 3844 2670 4047 
Q 2441 4250 2034 4250 
Q 1625 4250 1398 4047 
Q 1172 3844 1172 3481 
z
" transform="scale(0.015625)"/>
      </defs>
      <use xlink:href="#DejaVuSans-38"/>
     </g>
    </g>
   </g>
  </g>
  <g id="axis3d_2">
   <g id="line2d_10">
    <path d="M 131.687165 250.559841 
L 304.129451 264.818199 
" style="fill: none; stroke: #000000; stroke-width: 0.8; stroke-linecap: square"/>
   </g>
   <g id="Line3DCollection_2">
    <path d="M 206.028721 88.811884 
L 206.724673 205.97879 
L 157.027575 252.655108 
" style="fill: none; stroke: #b0b0b0; stroke-width: 0.8"/>
    <path d="M 228.788943 90.000174 
L 229.016162 207.616491 
L 181.676725 254.693218 
" style="fill: none; stroke: #b0b0b0; stroke-width: 0.8"/>
    <path d="M 251.738007 91.198324 
L 251.488756 209.267498 
L 206.549436 256.749814 
" style="fill: none; stroke: #b0b0b0; stroke-width: 0.8"/>
    <path d="M 274.878273 92.406455 
L 274.144672 210.931972 
L 231.648763 258.825147 
" style="fill: none; stroke: #b0b0b0; stroke-width: 0.8"/>
    <path d="M 298.21214 93.624695 
L 296.986161 212.610081 
L 256.977817 260.919475 
" style="fill: none; stroke: #b0b0b0; stroke-width: 0.8"/>
    <path d="M 321.742049 94.853169 
L 320.015514 214.301991 
L 282.539768 263.03306 
" style="fill: none; stroke: #b0b0b0; stroke-width: 0.8"/>
   </g>
   <g id="xtick_9">
    <g id="line2d_11">
     <path d="M 157.470587 252.239023 
L 156.139094 253.489584 
" style="fill: none; stroke: #000000; stroke-width: 0.8; stroke-linecap: square"/>
    </g>
    <g id="text_9">
     <!-- 2.5 -->
     <g transform="translate(144.600741 275.217336) scale(0.1 -0.1)">
      <defs>
       <path id="DejaVuSans-2e" d="M 684 794 
L 1344 794 
L 1344 0 
L 684 0 
L 684 794 
z
" transform="scale(0.015625)"/>
      </defs>
      <use xlink:href="#DejaVuSans-32"/>
      <use xlink:href="#DejaVuSans-2e" x="63.623047"/>
      <use xlink:href="#DejaVuSans-35" x="95.410156"/>
     </g>
    </g>
   </g>
   <g id="xtick_10">
    <g id="line2d_12">
     <path d="M 182.098915 254.27337 
L 180.829992 255.535252 
" style="fill: none; stroke: #000000; stroke-width: 0.8; stroke-linecap: square"/>
    </g>
    <g id="text_10">
     <!-- 5.0 -->
     <g transform="translate(169.420615 277.339323) scale(0.1 -0.1)">
      <defs>
       <path id="DejaVuSans-30" d="M 2034 4250 
Q 1547 4250 1301 3770 
Q 1056 3291 1056 2328 
Q 1056 1369 1301 889 
Q 1547 409 2034 409 
Q 2525 409 2770 889 
Q 3016 1369 3016 2328 
Q 3016 3291 2770 3770 
Q 2525 4250 2034 4250 
z
M 2034 4750 
Q 2819 4750 3233 4129 
Q 3647 3509 3647 2328 
Q 3647 1150 3233 529 
Q 2819 -91 2034 -91 
Q 1250 -91 836 529 
Q 422 1150 422 2328 
Q 422 3509 836 4129 
Q 1250 4750 2034 4750 
z
" transform="scale(0.015625)"/>
      </defs>
      <use xlink:href="#DejaVuSans-35"/>
      <use xlink:href="#DejaVuSans-2e" x="63.623047"/>
      <use xlink:href="#DejaVuSans-30" x="95.410156"/>
     </g>
    </g>
   </g>
   <g id="xtick_11">
    <g id="line2d_13">
     <path d="M 206.950408 256.326151 
L 205.745247 257.599509 
" style="fill: none; stroke: #000000; stroke-width: 0.8; stroke-linecap: square"/>
    </g>
    <g id="text_11">
     <!-- 7.5 -->
     <g transform="translate(194.467352 279.480705) scale(0.1 -0.1)">
      <use xlink:href="#DejaVuSans-37"/>
      <use xlink:href="#DejaVuSans-2e" x="63.623047"/>
      <use xlink:href="#DejaVuSans-35" x="95.410156"/>
     </g>
    </g>
   </g>
   <g id="xtick_12">
    <g id="line2d_14">
     <path d="M 232.028112 258.397617 
L 230.887931 259.682609 
" style="fill: none; stroke: #000000; stroke-width: 0.8; stroke-linecap: square"/>
    </g>
    <g id="text_12">
     <!-- 10.0 -->
     <g transform="translate(216.562826 281.641749) scale(0.1 -0.1)">
      <use xlink:href="#DejaVuSans-31"/>
      <use xlink:href="#DejaVuSans-30" x="63.623047"/>
      <use xlink:href="#DejaVuSans-2e" x="127.246094"/>
      <use xlink:href="#DejaVuSans-30" x="159.033203"/>
     </g>
    </g>
   </g>
   <g id="xtick_13">
    <g id="line2d_15">
     <path d="M 257.335131 260.488025 
L 256.261173 261.784811 
" style="fill: none; stroke: #000000; stroke-width: 0.8; stroke-linecap: square"/>
    </g>
    <g id="text_13">
     <!-- 12.5 -->
     <g transform="translate(242.072719 283.822729) scale(0.1 -0.1)">
      <use xlink:href="#DejaVuSans-31"/>
      <use xlink:href="#DejaVuSans-32" x="63.623047"/>
      <use xlink:href="#DejaVuSans-2e" x="127.246094"/>
      <use xlink:href="#DejaVuSans-35" x="159.033203"/>
     </g>
    </g>
   </g>
   <g id="xtick_14">
    <g id="line2d_16">
     <path d="M 282.874623 262.597636 
L 281.868158 263.906378 
" style="fill: none; stroke: #000000; stroke-width: 0.8; stroke-linecap: square"/>
    </g>
    <g id="text_14">
     <!-- 15.0 -->
     <g transform="translate(267.819023 286.023921) scale(0.1 -0.1)">
      <use xlink:href="#DejaVuSans-31"/>
      <use xlink:href="#DejaVuSans-35" x="63.623047"/>
      <use xlink:href="#DejaVuSans-2e" x="127.246094"/>
      <use xlink:href="#DejaVuSans-30" x="159.033203"/>
     </g>
    </g>
   </g>
  </g>
  <g id="axis3d_3">
   <g id="line2d_17">
    <path d="M 131.687165 250.559841 
L 129.153572 121.231657 
" style="fill: none; stroke: #000000; stroke-width: 0.8; stroke-linecap: square"/>
   </g>
   <g id="Line3DCollection_3">
    <path d="M 131.394838 235.637914 
L 183.650566 190.799451 
L 339.697556 201.880343 
" style="fill: none; stroke: #b0b0b0; stroke-width: 0.8"/>
    <path d="M 130.986676 214.803143 
L 183.461119 171.970828 
L 340.044651 182.552845 
" style="fill: none; stroke: #b0b0b0; stroke-width: 0.8"/>
    <path d="M 130.575428 193.810823 
L 183.270389 153.014621 
L 340.394165 163.090632 
" style="fill: none; stroke: #b0b0b0; stroke-width: 0.8"/>
    <path d="M 130.161058 172.65916 
L 183.078361 133.929528 
L 340.746124 143.492289 
" style="fill: none; stroke: #b0b0b0; stroke-width: 0.8"/>
    <path d="M 129.743531 151.346333 
L 182.885024 114.714229 
L 341.100554 123.756384 
" style="fill: none; stroke: #b0b0b0; stroke-width: 0.8"/>
    <path d="M 129.32281 129.870492 
L 182.690363 95.367389 
L 341.45748 103.881462 
" style="fill: none; stroke: #b0b0b0; stroke-width: 0.8"/>
   </g>
   <g id="xtick_15">
    <g id="line2d_18">
     <path d="M 131.860565 235.238293 
L 130.460805 236.439369 
" style="fill: none; stroke: #000000; stroke-width: 0.8; stroke-linecap: square"/>
    </g>
    <g id="text_15">
     <!-- 0.02 -->
     <g transform="translate(101.39061 246.294656) scale(0.1 -0.1)">
      <use xlink:href="#DejaVuSans-30"/>
      <use xlink:href="#DejaVuSans-2e" x="63.623047"/>
      <use xlink:href="#DejaVuSans-30" x="95.410156"/>
      <use xlink:href="#DejaVuSans-32" x="159.033203"/>
     </g>
    </g>
   </g>
   <g id="xtick_16">
    <g id="line2d_19">
     <path d="M 131.454533 214.421254 
L 130.048363 215.569042 
" style="fill: none; stroke: #000000; stroke-width: 0.8; stroke-linecap: square"/>
    </g>
    <g id="text_16">
     <!-- 0.04 -->
     <g transform="translate(100.907979 225.324265) scale(0.1 -0.1)">
      <use xlink:href="#DejaVuSans-30"/>
      <use xlink:href="#DejaVuSans-2e" x="63.623047"/>
      <use xlink:href="#DejaVuSans-30" x="95.410156"/>
      <use xlink:href="#DejaVuSans-34" x="159.033203"/>
     </g>
    </g>
   </g>
   <g id="xtick_17">
    <g id="line2d_20">
     <path d="M 131.045433 193.446947 
L 129.632796 194.540604 
" style="fill: none; stroke: #000000; stroke-width: 0.8; stroke-linecap: square"/>
    </g>
    <g id="text_17">
     <!-- 0.06 -->
     <g transform="translate(100.421673 204.194174) scale(0.1 -0.1)">
      <use xlink:href="#DejaVuSans-30"/>
      <use xlink:href="#DejaVuSans-2e" x="63.623047"/>
      <use xlink:href="#DejaVuSans-30" x="95.410156"/>
      <use xlink:href="#DejaVuSans-36" x="159.033203"/>
     </g>
    </g>
   </g>
   <g id="xtick_18">
    <g id="line2d_21">
     <path d="M 130.633231 172.313581 
L 129.214069 173.352251 
" style="fill: none; stroke: #000000; stroke-width: 0.8; stroke-linecap: square"/>
    </g>
    <g id="text_18">
     <!-- 0.08 -->
     <g transform="translate(99.931649 182.902552) scale(0.1 -0.1)">
      <use xlink:href="#DejaVuSans-30"/>
      <use xlink:href="#DejaVuSans-2e" x="63.623047"/>
      <use xlink:href="#DejaVuSans-30" x="95.410156"/>
      <use xlink:href="#DejaVuSans-38" x="159.033203"/>
     </g>
    </g>
   </g>
   <g id="xtick_19">
    <g id="line2d_22">
     <path d="M 130.217891 151.019341 
L 128.792145 152.002153 
" style="fill: none; stroke: #000000; stroke-width: 0.8; stroke-linecap: square"/>
    </g>
    <g id="text_19">
     <!-- 0.10 -->
     <g transform="translate(99.437865 161.44754) scale(0.1 -0.1)">
      <use xlink:href="#DejaVuSans-30"/>
      <use xlink:href="#DejaVuSans-2e" x="63.623047"/>
      <use xlink:href="#DejaVuSans-31" x="95.410156"/>
      <use xlink:href="#DejaVuSans-30" x="159.033203"/>
     </g>
    </g>
   </g>
   <g id="xtick_20">
    <g id="line2d_23">
     <path d="M 129.799377 129.562383 
L 128.366988 130.488449 
" style="fill: none; stroke: #000000; stroke-width: 0.8; stroke-linecap: square"/>
    </g>
    <g id="text_20">
     <!-- 0.12 -->
     <g transform="translate(98.940277 139.82725) scale(0.1 -0.1)">
      <use xlink:href="#DejaVuSans-30"/>
      <use xlink:href="#DejaVuSans-2e" x="63.623047"/>
      <use xlink:href="#DejaVuSans-31" x="95.410156"/>
      <use xlink:href="#DejaVuSans-32" x="159.033203"/>
     </g>
    </g>
   </g>
  </g>
  <g id="axes_1">
   <g id="Poly3DCollection_1">
    <path d="M 190.466455 203.818718 
L 184.315259 180.678139 
L 193.342442 176.714955 
L 199.372424 203.633031 
z
" clip-path="url(#pb1fbea3261)" style="fill: #185c8b"/>
    <path d="M 199.372424 203.633031 
L 193.342442 176.714955 
L 202.489338 183.955436 
L 208.325614 206.202743 
z
" clip-path="url(#pb1fbea3261)" style="fill: #185c8b"/>
    <path d="M 208.325614 206.202743 
L 202.489338 183.955436 
L 211.591911 180.704792 
L 217.290797 206.066114 
z
" clip-path="url(#pb1fbea3261)" style="fill: #185c8b"/>
    <path d="M 217.290797 206.066114 
L 211.591911 180.704792 
L 220.766709 186.041202 
L 226.292408 207.838802 
z
" clip-path="url(#pb1fbea3261)" style="fill: #185c8b"/>
    <path d="M 226.292408 207.838802 
L 220.766709 186.041202 
L 229.939828 181.896222 
L 235.318042 207.419869 
z
" clip-path="url(#pb1fbea3261)" style="fill: #185c8b"/>
    <path d="M 235.318042 207.419869 
L 229.939828 181.896222 
L 239.160195 185.963428 
L 244.375215 208.817815 
z
" clip-path="url(#pb1fbea3261)" style="fill: #185c8b"/>
    <path d="M 244.375215 208.817815 
L 239.160195 185.963428 
L 248.413441 181.33859 
L 253.464447 208.278745 
z
" clip-path="url(#pb1fbea3261)" style="fill: #185c8b"/>
    <path d="M 253.464447 208.278745 
L 248.413441 181.33859 
L 257.68486 186.127737 
L 262.578762 209.85804 
z
" clip-path="url(#pb1fbea3261)" style="fill: #185c8b"/>
    <path d="M 262.578762 209.85804 
L 257.68486 186.127737 
L 267.016906 182.031991 
L 271.73152 209.445794 
z
" clip-path="url(#pb1fbea3261)" style="fill: #185c8b"/>
    <path d="M 271.73152 209.445794 
L 267.016906 182.031991 
L 276.318046 189.836488 
L 280.897323 211.824027 
z
" clip-path="url(#pb1fbea3261)" style="fill: #185c8b"/>
    <path d="M 280.897323 211.824027 
L 276.318046 189.836488 
L 285.720206 186.269813 
L 290.111926 211.53625 
z
" clip-path="url(#pb1fbea3261)" style="fill: #185c8b"/>
    <path d="M 290.111926 211.53625 
L 285.720206 186.269813 
L 295.07718 191.868477 
L 299.337358 213.374527 
z
" clip-path="url(#pb1fbea3261)" style="fill: #185c8b"/>
    <path d="M 299.337358 213.374527 
L 295.07718 191.868477 
L 304.54678 189.060774 
L 308.614834 213.170082 
z
" clip-path="url(#pb1fbea3261)" style="fill: #185c8b"/>
    <path d="M 184.315259 180.678139 
L 177.838974 147.989224 
L 186.979076 138.131871 
L 193.342442 176.714955 
z
" clip-path="url(#pb1fbea3261)" style="fill: #185d8c"/>
    <path d="M 193.342442 176.714955 
L 186.979076 138.131871 
L 196.348201 149.421649 
L 202.489338 183.955436 
z
" clip-path="url(#pb1fbea3261)" style="fill: #185c8b"/>
    <path d="M 308.614834 213.170082 
L 304.54678 189.060774 
L 314.062419 186.071647 
L 317.933022 212.467932 
z
" clip-path="url(#pb1fbea3261)" style="fill: #185c8b"/>
    <path d="M 202.489338 183.955436 
L 196.348201 149.421649 
L 205.592371 140.796309 
L 211.591911 180.704792 
z
" clip-path="url(#pb1fbea3261)" style="fill: #185d8c"/>
    <path d="M 317.933022 212.467932 
L 314.062419 186.071647 
L 323.579056 185.9775 
L 327.272515 212.670533 
z
" clip-path="url(#pb1fbea3261)" style="fill: #185c8b"/>
    <path d="M 211.591911 180.704792 
L 205.592371 140.796309 
L 214.982659 151.215018 
L 220.766709 186.041202 
z
" clip-path="url(#pb1fbea3261)" style="fill: #185c8b"/>
    <path d="M 220.766709 186.041202 
L 214.982659 151.215018 
L 224.316182 141.331665 
L 229.939828 181.896222 
z
" clip-path="url(#pb1fbea3261)" style="fill: #185d8c"/>
    <path d="M 229.939828 181.896222 
L 224.316182 141.331665 
L 233.736869 150.379066 
L 239.160195 185.963428 
z
" clip-path="url(#pb1fbea3261)" style="fill: #185c8c"/>
    <path d="M 239.160195 185.963428 
L 233.736869 150.379066 
L 243.173283 139.570648 
L 248.413441 181.33859 
z
" clip-path="url(#pb1fbea3261)" style="fill: #185d8c"/>
    <path d="M 248.413441 181.33859 
L 243.173283 139.570648 
L 252.631953 149.855096 
L 257.68486 186.127737 
z
" clip-path="url(#pb1fbea3261)" style="fill: #185c8c"/>
    <path d="M 257.68486 186.127737 
L 252.631953 149.855096 
L 262.170959 139.883697 
L 267.016906 182.031991 
z
" clip-path="url(#pb1fbea3261)" style="fill: #185d8c"/>
    <path d="M 267.016906 182.031991 
L 262.170959 139.883697 
L 271.638648 154.508849 
L 276.318046 189.836488 
z
" clip-path="url(#pb1fbea3261)" style="fill: #185c8b"/>
    <path d="M 276.318046 189.836488 
L 271.638648 154.508849 
L 281.264738 145.648516 
L 285.720206 186.269813 
z
" clip-path="url(#pb1fbea3261)" style="fill: #185d8c"/>
    <path d="M 285.720206 186.269813 
L 281.264738 145.648516 
L 290.778101 156.354401 
L 295.07718 191.868477 
z
" clip-path="url(#pb1fbea3261)" style="fill: #185c8b"/>
    <path d="M 295.07718 191.868477 
L 290.778101 156.354401 
L 300.473643 150.060416 
L 304.54678 189.060774 
z
" clip-path="url(#pb1fbea3261)" style="fill: #185d8c"/>
    <path d="M 177.838974 147.989224 
L 171.24102 125.944072 
L 180.481785 111.534004 
L 186.979076 138.131871 
z
" clip-path="url(#pb1fbea3261)" style="fill: #185c8c"/>
    <path d="M 186.979076 138.131871 
L 180.481785 111.534004 
L 190.040442 123.862668 
L 196.348201 149.421649 
z
" clip-path="url(#pb1fbea3261)" style="fill: #185c8b"/>
    <path d="M 304.54678 189.060774 
L 300.473643 150.060416 
L 310.164681 148.671099 
L 314.062419 186.071647 
z
" clip-path="url(#pb1fbea3261)" style="fill: #185c8c"/>
    <path d="M 196.348201 149.421649 
L 190.040442 123.862668 
L 199.408796 110.480682 
L 205.592371 140.796309 
z
" clip-path="url(#pb1fbea3261)" style="fill: #185c8c"/>
    <path d="M 314.062419 186.071647 
L 310.164681 148.671099 
L 319.872505 148.931951 
L 323.579056 185.9775 
z
" clip-path="url(#pb1fbea3261)" style="fill: #185c8c"/>
    <path d="M 205.592371 140.796309 
L 199.408796 110.480682 
L 209.0078 124.814912 
L 214.982659 151.215018 
z
" clip-path="url(#pb1fbea3261)" style="fill: #185c8b"/>
    <path d="M 214.982659 151.215018 
L 209.0078 124.814912 
L 218.484832 110.330727 
L 224.316182 141.331665 
z
" clip-path="url(#pb1fbea3261)" style="fill: #185c8c"/>
    <path d="M 224.316182 141.331665 
L 218.484832 110.330727 
L 228.105918 124.908349 
L 233.736869 150.379066 
z
" clip-path="url(#pb1fbea3261)" style="fill: #185c8b"/>
    <path d="M 233.736869 150.379066 
L 228.105918 124.908349 
L 237.701623 109.25302 
L 243.173283 139.570648 
z
" clip-path="url(#pb1fbea3261)" style="fill: #185c8c"/>
    <path d="M 243.173283 139.570648 
L 237.701623 109.25302 
L 247.344062 124.871126 
L 252.631953 149.855096 
z
" clip-path="url(#pb1fbea3261)" style="fill: #185c8b"/>
    <path d="M 252.631953 149.855096 
L 247.344062 124.871126 
L 257.062813 109.68011 
L 262.170959 139.883697 
z
" clip-path="url(#pb1fbea3261)" style="fill: #185c8c"/>
    <path d="M 262.170959 139.883697 
L 257.062813 109.68011 
L 266.714018 127.02786 
L 271.638648 154.508849 
z
" clip-path="url(#pb1fbea3261)" style="fill: #185c8b"/>
    <path d="M 171.24102 125.944072 
L 164.766279 130.996277 
L 174.106195 116.391285 
L 180.481785 111.534004 
z
" clip-path="url(#pb1fbea3261)" style="fill: #185c8b"/>
    <path d="M 271.638648 154.508849 
L 266.714018 127.02786 
L 276.542012 113.530015 
L 281.264738 145.648516 
z
" clip-path="url(#pb1fbea3261)" style="fill: #185c8c"/>
    <path d="M 180.481785 111.534004 
L 174.106195 116.391285 
L 183.782988 127.208 
L 190.040442 123.862668 
z
" clip-path="url(#pb1fbea3261)" style="fill: #185b8a"/>
    <path d="M 281.264738 145.648516 
L 276.542012 113.530015 
L 286.23059 127.009766 
L 290.778101 156.354401 
z
" clip-path="url(#pb1fbea3261)" style="fill: #185c8b"/>
    <path d="M 190.040442 123.862668 
L 183.782988 127.208 
L 193.254503 113.23429 
L 199.408796 110.480682 
z
" clip-path="url(#pb1fbea3261)" style="fill: #185c8b"/>
    <path d="M 290.778101 156.354401 
L 286.23059 127.009766 
L 296.131382 118.170985 
L 300.473643 150.060416 
z
" clip-path="url(#pb1fbea3261)" style="fill: #185c8c"/>
    <path d="M 199.408796 110.480682 
L 193.254503 113.23429 
L 202.995076 127.771254 
L 209.0078 124.814912 
z
" clip-path="url(#pb1fbea3261)" style="fill: #185b89"/>
    <path d="M 300.473643 150.060416 
L 296.131382 118.170985 
L 305.936215 123.260086 
L 310.164681 148.671099 
z
" clip-path="url(#pb1fbea3261)" style="fill: #185c8b"/>
    <path d="M 209.0078 124.814912 
L 202.995076 127.771254 
L 212.581668 113.180267 
L 218.484832 110.330727 
z
" clip-path="url(#pb1fbea3261)" style="fill: #185c8b"/>
    <path d="M 310.164681 148.671099 
L 305.936215 123.260086 
L 315.816964 124.120442 
L 319.872505 148.931951 
z
" clip-path="url(#pb1fbea3261)" style="fill: #185c8b"/>
    <path d="M 218.484832 110.330727 
L 212.581668 113.180267 
L 222.351456 130.045176 
L 228.105918 124.908349 
z
" clip-path="url(#pb1fbea3261)" style="fill: #185b89"/>
    <path d="M 164.766279 130.996277 
L 158.509609 163.724964 
L 167.961479 153.45246 
L 174.106195 116.391285 
z
" clip-path="url(#pb1fbea3261)" style="fill: #185b89"/>
    <path d="M 228.105918 124.908349 
L 222.351456 130.045176 
L 232.055036 114.447966 
L 237.701623 109.25302 
z
" clip-path="url(#pb1fbea3261)" style="fill: #185c8b"/>
    <path d="M 237.701623 109.25302 
L 232.055036 114.447966 
L 241.836926 131.377057 
L 247.344062 124.871126 
z
" clip-path="url(#pb1fbea3261)" style="fill: #185b89"/>
    <path d="M 174.106195 116.391285 
L 167.961479 153.45246 
L 177.689506 161.691745 
L 183.782988 127.208 
z
" clip-path="url(#pb1fbea3261)" style="fill: #175a88"/>
    <path d="M 247.344062 124.871126 
L 241.836926 131.377057 
L 251.666021 115.351737 
L 257.062813 109.68011 
z
" clip-path="url(#pb1fbea3261)" style="fill: #185c8b"/>
    <path d="M 183.782988 127.208 
L 177.689506 161.691745 
L 187.25653 151.878726 
L 193.254503 113.23429 
z
" clip-path="url(#pb1fbea3261)" style="fill: #185b89"/>
    <path d="M 257.062813 109.68011 
L 251.666021 115.351737 
L 261.474051 128.839786 
L 266.714018 127.02786 
z
" clip-path="url(#pb1fbea3261)" style="fill: #185b89"/>
    <path d="M 193.254503 113.23429 
L 187.25653 151.878726 
L 197.051239 162.723173 
L 202.995076 127.771254 
z
" clip-path="url(#pb1fbea3261)" style="fill: #175a88"/>
    <path d="M 266.714018 127.02786 
L 261.474051 128.839786 
L 271.426617 114.707265 
L 276.542012 113.530015 
z
" clip-path="url(#pb1fbea3261)" style="fill: #185c8b"/>
    <path d="M 158.509609 163.724964 
L 152.316579 208.347108 
L 161.895538 204.108745 
L 167.961479 153.45246 
z
" clip-path="url(#pb1fbea3261)" style="fill: #185a89"/>
    <path d="M 202.995076 127.771254 
L 197.051239 162.723173 
L 206.721733 152.636539 
L 212.581668 113.180267 
z
" clip-path="url(#pb1fbea3261)" style="fill: #185b89"/>
    <path d="M 276.542012 113.530015 
L 271.426617 114.707265 
L 281.27759 126.171011 
L 286.23059 127.009766 
z
" clip-path="url(#pb1fbea3261)" style="fill: #185b8a"/>
    <path d="M 212.581668 113.180267 
L 206.721733 152.636539 
L 216.562581 166.327072 
L 222.351456 130.045176 
z
" clip-path="url(#pb1fbea3261)" style="fill: #175a88"/>
    <path d="M 167.961479 153.45246 
L 161.895538 204.108745 
L 171.641118 209.270186 
L 177.689506 161.691745 
z
" clip-path="url(#pb1fbea3261)" style="fill: #175a88"/>
    <path d="M 286.23059 127.009766 
L 281.27759 126.171011 
L 291.310403 117.37734 
L 296.131382 118.170985 
z
" clip-path="url(#pb1fbea3261)" style="fill: #185c8b"/>
    <path d="M 222.351456 130.045176 
L 216.562581 166.327072 
L 226.33426 155.652403 
L 232.055036 114.447966 
z
" clip-path="url(#pb1fbea3261)" style="fill: #185b89"/>
    <path d="M 177.689506 161.691745 
L 171.641118 209.270186 
L 181.30895 205.23804 
L 187.25653 151.878726 
z
" clip-path="url(#pb1fbea3261)" style="fill: #185a88"/>
    <path d="M 296.131382 118.170985 
L 291.310403 117.37734 
L 301.196578 128.348032 
L 305.936215 123.260086 
z
" clip-path="url(#pb1fbea3261)" style="fill: #185b8a"/>
    <path d="M 232.055036 114.447966 
L 226.33426 155.652403 
L 236.195556 168.564845 
L 241.836926 131.377057 
z
" clip-path="url(#pb1fbea3261)" style="fill: #175a88"/>
    <path d="M 187.25653 151.878726 
L 181.30895 205.23804 
L 191.113287 210.947038 
L 197.051239 162.723173 
z
" clip-path="url(#pb1fbea3261)" style="fill: #175a88"/>
    <path d="M 305.936215 123.260086 
L 301.196578 128.348032 
L 311.204273 129.639167 
L 315.816964 124.120442 
z
" clip-path="url(#pb1fbea3261)" style="fill: #185b8a"/>
    <path d="M 241.836926 131.377057 
L 236.195556 168.564845 
L 246.076354 156.968855 
L 251.666021 115.351737 
z
" clip-path="url(#pb1fbea3261)" style="fill: #185b89"/>
    <path d="M 197.051239 162.723173 
L 191.113287 210.947038 
L 200.865148 206.691922 
L 206.721733 152.636539 
z
" clip-path="url(#pb1fbea3261)" style="fill: #175a88"/>
    <path d="M 152.316579 208.347108 
L 145.875945 244.225897 
L 155.583826 244.074462 
L 161.895538 204.108745 
z
" clip-path="url(#pb1fbea3261)" style="fill: #185a89"/>
    <path d="M 206.721733 152.636539 
L 200.865148 206.691922 
L 210.730413 214.081864 
L 216.562581 166.327072 
z
" clip-path="url(#pb1fbea3261)" style="fill: #175a88"/>
    <path d="M 251.666021 115.351737 
L 246.076354 156.968855 
L 255.982152 163.871601 
L 261.474051 128.839786 
z
" clip-path="url(#pb1fbea3261)" style="fill: #175a88"/>
    <path d="M 161.895538 204.108745 
L 155.583826 244.074462 
L 165.360564 246.209649 
L 171.641118 209.270186 
z
" clip-path="url(#pb1fbea3261)" style="fill: #185a89"/>
    <path d="M 216.562581 166.327072 
L 210.730413 214.081864 
L 220.566202 209.599803 
L 226.33426 155.652403 
z
" clip-path="url(#pb1fbea3261)" style="fill: #185a88"/>
    <path d="M 171.641118 209.270186 
L 165.360564 246.209649 
L 175.139767 245.978528 
L 181.30895 205.23804 
z
" clip-path="url(#pb1fbea3261)" style="fill: #185a89"/>
    <path d="M 261.474051 128.839786 
L 255.982152 163.871601 
L 265.981355 153.630508 
L 271.426617 114.707265 
z
" clip-path="url(#pb1fbea3261)" style="fill: #185b89"/>
    <path d="M 226.33426 155.652403 
L 220.566202 209.599803 
L 230.474462 216.241322 
L 236.195556 168.564845 
z
" clip-path="url(#pb1fbea3261)" style="fill: #175a88"/>
    <path d="M 181.30895 205.23804 
L 175.139767 245.978528 
L 184.979906 247.982459 
L 191.113287 210.947038 
z
" clip-path="url(#pb1fbea3261)" style="fill: #185a89"/>
    <path d="M 271.426617 114.707265 
L 265.981355 153.630508 
L 275.946907 160.147075 
L 281.27759 126.171011 
z
" clip-path="url(#pb1fbea3261)" style="fill: #175a88"/>
    <path d="M 236.195556 168.564845 
L 230.474462 216.241322 
L 240.398494 211.095344 
L 246.076354 156.968855 
z
" clip-path="url(#pb1fbea3261)" style="fill: #185a89"/>
    <path d="M 191.113287 210.947038 
L 184.979906 247.982459 
L 194.831826 247.625363 
L 200.865148 206.691922 
z
" clip-path="url(#pb1fbea3261)" style="fill: #185a89"/>
    <path d="M 281.27759 126.171011 
L 275.946907 160.147075 
L 286.032466 153.922376 
L 291.310403 117.37734 
z
" clip-path="url(#pb1fbea3261)" style="fill: #185b89"/>
    <path d="M 200.865148 206.691922 
L 194.831826 247.625363 
L 204.741049 250.050911 
L 210.730413 214.081864 
z
" clip-path="url(#pb1fbea3261)" style="fill: #185a89"/>
    <path d="M 246.076354 156.968855 
L 240.398494 211.095344 
L 250.364684 213.615649 
L 255.982152 163.871601 
z
" clip-path="url(#pb1fbea3261)" style="fill: #175a88"/>
    <path d="M 291.310403 117.37734 
L 286.032466 153.922376 
L 296.008553 164.658232 
L 301.196578 128.348032 
z
" clip-path="url(#pb1fbea3261)" style="fill: #175a88"/>
    <path d="M 301.196578 128.348032 
L 296.008553 164.658232 
L 306.09744 165.871045 
L 311.204273 129.639167 
z
" clip-path="url(#pb1fbea3261)" style="fill: #185a89"/>
    <path d="M 210.730413 214.081864 
L 204.741049 250.050911 
L 214.667257 249.644865 
L 220.566202 209.599803 
z
" clip-path="url(#pb1fbea3261)" style="fill: #185a89"/>
    <path d="M 255.982152 163.871601 
L 250.364684 213.615649 
L 260.386902 208.991775 
L 265.981355 153.630508 
z
" clip-path="url(#pb1fbea3261)" style="fill: #175a88"/>
    <path d="M 220.566202 209.599803 
L 214.667257 249.644865 
L 224.640859 251.839589 
L 230.474462 216.241322 
z
" clip-path="url(#pb1fbea3261)" style="fill: #185a89"/>
    <path d="M 265.981355 153.630508 
L 260.386902 208.991775 
L 270.424975 211.553136 
L 275.946907 160.147075 
z
" clip-path="url(#pb1fbea3261)" style="fill: #175a88"/>
    <path d="M 230.474462 216.241322 
L 224.640859 251.839589 
L 234.642949 251.251758 
L 240.398494 211.095344 
z
" clip-path="url(#pb1fbea3261)" style="fill: #185a89"/>
    <path d="M 275.946907 160.147075 
L 270.424975 211.553136 
L 280.531954 208.777717 
L 286.032466 153.922376 
z
" clip-path="url(#pb1fbea3261)" style="fill: #175a88"/>
    <path d="M 240.398494 211.095344 
L 234.642949 251.251758 
L 244.684924 252.342395 
L 250.364684 213.615649 
z
" clip-path="url(#pb1fbea3261)" style="fill: #185a89"/>
    <path d="M 286.032466 153.922376 
L 280.531954 208.777717 
L 290.609262 214.633765 
L 296.008553 164.658232 
z
" clip-path="url(#pb1fbea3261)" style="fill: #175a88"/>
    <path d="M 296.008553 164.658232 
L 290.609262 214.633765 
L 300.761329 215.332242 
L 306.09744 165.871045 
z
" clip-path="url(#pb1fbea3261)" style="fill: #175a88"/>
    <path d="M 250.364684 213.615649 
L 244.684924 252.342395 
L 254.766719 251.843027 
L 260.386902 208.991775 
z
" clip-path="url(#pb1fbea3261)" style="fill: #185a89"/>
    <path d="M 260.386902 208.991775 
L 254.766719 251.843027 
L 264.882784 252.938602 
L 270.424975 211.553136 
z
" clip-path="url(#pb1fbea3261)" style="fill: #185a89"/>
    <path d="M 270.424975 211.553136 
L 264.882784 252.938602 
L 275.042569 252.813048 
L 280.531954 208.777717 
z
" clip-path="url(#pb1fbea3261)" style="fill: #185a89"/>
    <path d="M 280.531954 208.777717 
L 275.042569 252.813048 
L 285.226213 254.721466 
L 290.609262 214.633765 
z
" clip-path="url(#pb1fbea3261)" style="fill: #175a88"/>
    <path d="M 290.609262 214.633765 
L 285.226213 254.721466 
L 295.457037 255.258838 
L 300.761329 215.332242 
z
" clip-path="url(#pb1fbea3261)" style="fill: #185a89"/>
   </g>
  </g>
 </g>
 <defs>
  <clipPath id="pb1fbea3261">
   <rect x="103.104" y="41.472" width="266.112" height="266.112"/>
  </clipPath>
 </defs>
</svg>
